# xmcd CD database file
#
# Track frame offsets:
#	150
#	19137
#	40717
#	44620
#	65805
#	80725
#	83407
#	95490
#	117995
#
# Disc length: 1794 seconds
#
# Revision: 0
# Processed by: cddbd v1.5.1PL2 Copyright (c) Steve Scherf et al.
# Submitted via: CDex 1.51
#
DISCID=71070009
DTITLE=tetrapletrap - 少年サーフライダー
DYEAR=2004
DGENRE=Japanese Pop
TTITLE0=純水サーフライダー
TTITLE1=SELF CONTROL
TTITLE2=（携帯アンテナ1）
TTITLE3=マリン
TTITLE4=人街37.2℃
TTITLE5=（携帯アンテナ3）
TTITLE6=モア・ヴァカンス
TTITLE7=NaNa
TTITLE8=Vector（Radio Edit）
EXTD=YEAR: 2004
EXTT0=
EXTT1=
EXTT2=
EXTT3=
EXTT4=
EXTT5=
EXTT6=
EXTT7=
EXTT8=
PLAYORDER=
